<svg width="24" height="24" viewBox="0 0 24 24" fill="none" xmlns="http://www.w3.org/2000/svg">
    <g clip-path="url(#clip0_201_317)">
        <path
            d="M24 12C24 5.3726 18.6274 2.41482e-05 12 2.41482e-05C5.37258 2.41482e-05 0 5.3726 0 12C0 17.9896 4.38823 22.954 10.125 23.8542V15.4688H7.07813V12H10.125V9.35628C10.125 6.34878 11.9165 4.68752 14.6576 4.68752C15.9705 4.68752 17.3438 4.9219 17.3438 4.9219V7.87503H15.8306C14.3399 7.87503 13.875 8.80003 13.875 9.74902V12H17.2031L16.6711 15.4688H13.875V23.8542C19.6118 22.954 24 17.9896 24 12Z"
            fill="white" />
    </g>
    <defs>
        <clipPath id="clip0_201_317">
            <rect width="24" height="24" fill="white" />
        </clipPath>
    </defs>
</svg>
