<svg width="24" height="24" viewBox="0 0 24 24" fill="none" xmlns="http://www.w3.org/2000/svg">
    <path fill-rule="evenodd" clip-rule="evenodd"
        d="M23.52 12.2727C23.52 11.4218 23.4436 10.6036 23.3018 9.81818H12V14.46H18.4582C18.18 15.96 17.3346 17.2309 16.0636 18.0818V21.0927H19.9418C22.2109 19.0036 23.52 15.9273 23.52 12.2727Z"
        fill="#4285F4" />
    <path fill-rule="evenodd" clip-rule="evenodd"
        d="M11.9999 23.9998C15.2399 23.9998 17.9563 22.9253 19.9418 21.0926L16.0636 18.0817C14.989 18.8017 13.6145 19.2271 11.9999 19.2271C8.87448 19.2271 6.22903 17.1162 5.28539 14.2798H1.2763V17.3889C3.25084 21.3108 7.30903 23.9998 11.9999 23.9998Z"
        fill="#34A853" />
    <path fill-rule="evenodd" clip-rule="evenodd"
        d="M5.28547 14.2801C5.04547 13.5601 4.90911 12.791 4.90911 12.0001C4.90911 11.2092 5.04547 10.4401 5.28547 9.72011V6.61102H1.27638C0.463655 8.23102 1.90735e-05 10.0638 1.90735e-05 12.0001C1.90735e-05 13.9365 0.463655 15.7692 1.27638 17.3892L5.28547 14.2801Z"
        fill="#FBBC05" />
    <path fill-rule="evenodd" clip-rule="evenodd"
        d="M11.9999 4.77273C13.7618 4.77273 15.3436 5.37818 16.5872 6.56727L20.029 3.12545C17.9508 1.18909 15.2345 0 11.9999 0C7.30903 0 3.25084 2.68909 1.2763 6.61091L5.28539 9.72C6.22903 6.88364 8.87448 4.77273 11.9999 4.77273Z"
        fill="#EA4335" />
</svg>
